<svg version="1.1" id="Layer_1" xmlns="http://www.w3.org/2000/svg" x="0" y="0" viewBox="0 0 90.4 27.9" xml:space="preserve"><style>.st1{fill:#e67e22}</style><path d="M33 19c-.6-.3-1.1-.7-1.5-1.2s-.5-1-.5-1.7c0-1 .4-1.8 1.2-2.4.8-.6 1.9-1 3.2-1.2l3.3-.5v-.6c0-1.5-.9-2.3-2.6-2.3-.7 0-1.2.1-1.6.4-.4.3-.7.6-.9 1-.1.1-.1.2-.2.3-.1.1-.2.1-.3.1h-.9c-.1 0-.2 0-.3-.1-.1-.1-.1-.2-.1-.3 0-.3.2-.7.5-1.2.3-.4.8-.8 1.5-1.2s1.5-.5 2.4-.5c1.6 0 2.8.4 3.5 1.1.7.8 1.1 1.7 1.1 2.9v7.2c0 .1 0 .3-.1.4s-.2.1-.4.1h-1c-.1 0-.3 0-.4-.1s-.1-.2-.1-.4v-1c-.3.5-.8.9-1.4 1.2-.6.3-1.4.5-2.4.5-.8 0-1.4-.2-2-.5zm4.8-2.1c.6-.6.9-1.5.9-2.8v-.6l-2.6.4c-1.1.1-1.9.4-2.4.7s-.8.8-.8 1.3c0 .6.2 1.1.7 1.4.5.3 1.1.5 1.7.5 1.1.1 1.9-.3 2.5-.9zm6.7 6.6c-.7-.4-1.3-.9-1.6-1.4s-.5-1-.5-1.4c0-.1.1-.2.2-.3.1-.1.2-.1.4-.1h1c.1 0 .2 0 .3.1s.2.2.2.4c.4 1.2 1.3 1.8 2.8 1.8 1.1 0 1.9-.2 2.4-.7s.8-1.3.8-2.5v-1.5c-.9 1.1-2 1.6-3.6 1.6s-2.7-.5-3.5-1.5-1.2-2.3-1.2-3.8V13c0-1.5.5-2.8 1.2-3.8.8-1 1.9-1.5 3.5-1.5 1.5 0 2.7.6 3.6 1.7V8.3c0-.1 0-.3.1-.4s.2-.2.4-.2h.9c.1 0 .3.1.4.2.1.1.1.2.1.4V19c0 3.4-1.7 5.1-5.1 5.1-1.1 0-2.1-.2-2.8-.6zm5.2-6.9c.5-.7.8-1.5.8-2.4v-1.5c0-.9-.3-1.7-.8-2.4s-1.3-1-2.3-1c-1.1 0-1.8.3-2.3 1s-.7 1.5-.8 2.6v1.2c0 1.1.3 1.9.8 2.6s1.2 1 2.3 1c1-.1 1.8-.4 2.3-1.1zm5.1-11.1c-.1-.1-.1-.2-.1-.4V4c0-.1 0-.3.1-.4.1-.1.2-.2.4-.2h1.3c.1 0 .3.1.4.2.1.1.2.2.2.4v1.1c0 .1-.1.3-.2.4-.1.1-.2.1-.4.1h-1.3c-.2.1-.4 0-.4-.1zm.1 13.6c-.1-.1-.1-.2-.1-.4V8.3c0-.1 0-.3.1-.4s.2-.1.4-.1h1c.1 0 .3 0 .4.1.1.1.1.2.1.4v10.4c0 .1 0 .3-.1.4s-.2.1-.4.1h-1c-.2 0-.3 0-.4-.1zm7.2-.4L58 8.5v-.2c0-.1 0-.2.1-.3s.2-.1.3-.1h1c.2 0 .4.1.5.4l3.4 8.8 3.4-8.8c0-.1.1-.2.2-.2.1-.1.2-.1.3-.1h1c.1 0 .2 0 .3.1.1.1.1.2.1.3v.2l-4.1 10.2c-.2.4-.4.5-.8.5h-.9c-.2-.1-.5-.2-.7-.6zm8.4-.6c-.9-.9-1.4-2.2-1.5-3.8v-1.4c.1-1.6.6-2.8 1.5-3.8.9-.9 2.1-1.4 3.6-1.4 1.6 0 2.9.5 3.8 1.5s1.3 2.4 1.3 4.2v.4c0 .1 0 .3-.1.4-.1.1-.2.1-.4.1h-7.6v.2c0 1 .3 1.8.9 2.4.5.7 1.3 1 2.2 1 .7 0 1.3-.1 1.7-.4s.8-.6 1-.8c.1-.2.2-.3.3-.3s.2-.1.4-.1h1c.1 0 .2 0 .3.1.1.1.1.2.1.3 0 .3-.2.7-.6 1.2s-1 .8-1.7 1.2c-.7.3-1.6.5-2.5.5-1.6-.1-2.8-.6-3.7-1.5zm6.7-5.4c0-1.1-.3-1.9-.8-2.6s-1.3-1-2.2-1c-1 0-1.7.3-2.2 1-.5.6-.8 1.5-.8 2.5v.1h6zm4.5 5.4c-.9-.9-1.4-2.2-1.5-3.8v-1.4c.1-1.6.6-2.8 1.5-3.8.9-.9 2.1-1.4 3.6-1.4 1.6 0 2.9.5 3.8 1.5s1.3 2.4 1.3 4.2v.4c0 .1 0 .3-.1.4-.1.1-.2.1-.4.1h-7.6v.2c0 1 .3 1.8.9 2.4.5.7 1.3 1 2.2 1 .7 0 1.3-.1 1.7-.4s.8-.6 1-.8c.1-.2.2-.3.3-.3s.2-.1.4-.1h1c.1 0 .2 0 .3.1.1.1.1.2.1.3 0 .3-.2.7-.6 1.2s-1 .8-1.7 1.2c-.7.3-1.6.5-2.5.5-1.6-.1-2.8-.6-3.7-1.5zm6.7-5.4c0-1.1-.3-1.9-.8-2.6s-1.3-1-2.2-1c-1 0-1.7.3-2.2 1-.5.6-.8 1.5-.8 2.5v.1h6z" fill="#b3b3b3"/><path class="st1" d="M14.7 10.9l.7 3 1.4 7.5 1.7-.4-2.1-10.5zm3.1-.6l.5 2.3 3.8-.7-.5-2.4zm-2.2 11.3l-1.4-6.8-3 .6 1.4 6.8zm6.6-4.2l-.8-4-3 .6 1.4 6.5z"/><path class="st1" d="M25.6 3.1L4.8 0C1.6-.4-.9 2.7.3 5.7L8 25.3c1.2 3 5.1 3.6 7.1 1.1l3-3.8-6 1.1c-.5 0-.8-.3-.8-.7l-1.4-7.4h-.2c-.5 0-.8-.3-.8-.7L8 11.5c0-.5.3-.8.7-.8l1.4-.3c-.6-.3-1-1-1.2-1.7-.2-.6 0-1.3.4-1.9.4-.6 1-.9 1.7-1 2.1-.4 3.3 1.3 4.2 2.6v-.1l.1-.2c.4-1.5.9-3.4 2.9-3.8 1.4-.2 2.7.7 2.9 2 .1.7-.1 1.5-.5 2l1.5-.3c.4 0 .7.2.9.7l.7 3.7c0 .5-.3.8-.7.8h-.2l.5 2.7 4.8-6.1c2.1-2.4.7-6.2-2.5-6.7z"/><path class="st1" d="M19.7 6.6c0-.3-.2-.6-.5-.8-.2-.1-.4-.2-.6-.2h-.2c-1.2.2-1.6 1.6-1.9 3 0 .1-.1.3-.1.4.7-.2 2.1-.6 2.9-1.5.3-.2.5-.5.4-.9zM9.6 11.9l.5 2.4.2-.1 3.7-.7-.5-2.4zm1.8-4.8h-.3c-.3 0-.5.2-.7.4-.2.2-.2.5-.2.8.1.3.2.7.7.8 1.1.5 2.5.4 3.3.3-.1-.1-.1-.2-.2-.3l-.3-.3c-.7-.8-1.4-1.7-2.3-1.7z"/></svg>